<?xml version="1.0" encoding="utf-8"?>
<!-- Generator: Adobe Illustrator 24.1.1, SVG Export Plug-In . SVG Version: 6.00 Build 0)  -->
<svg version="1.1" id="Layer_1" xmlns="http://www.w3.org/2000/svg" xmlns:xlink="http://www.w3.org/1999/xlink" x="0px" y="0px"
	 viewBox="0 0 512 512" style="enable-background:new 0 0 512 512;" xml:space="preserve">
<style type="text/css">
	.st0{fill:#111211;}
	.st1{fill:#E4DBCB;}
	.st2{fill:#E83C49;}
</style>
<path class="st0" d="M92.5,0h326.9C470.6,0,512,41.4,512,92.5v326.9c0,51.1-41.4,92.5-92.5,92.5H92.5C41.4,512,0,470.6,0,419.5V92.5
	C0,41.4,41.4,0,92.5,0z"/>
<g>
	<path class="st1" d="M364.6,93.7H142.2c-28.7,0-52.1,23.4-52.1,52.1v222.4c0,28.7,23.4,52.1,52.1,52.1h222.4
		c28.7,0,52.1-23.4,52.1-52.1V145.9C416.7,117.1,393.3,93.7,364.6,93.7z M243.5,400.6H142.2c-17.8,0-32.4-14.5-32.4-32.4V266.9
		h133.7V400.6z M243.5,247.2H109.9V145.9c0-17.8,14.5-32.4,32.4-32.4h101.3V247.2z M397,368.2c0,17.8-14.5,32.4-32.4,32.4H263.3
		V266.9H397V368.2z M397,247.2H263.3V113.5h101.3c17.8,0,32.4,14.5,32.4,32.4V247.2z"/>
	<path class="st1" d="M330.1,132.8c-26.2,0-47.5,21.3-47.5,47.5s21.3,47.5,47.5,47.5s47.5-21.3,47.5-47.5S356.3,132.8,330.1,132.8z
		 M330.1,208.1c-15.3,0-27.8-12.5-27.8-27.8c0-15.3,12.5-27.8,27.8-27.8s27.8,12.5,27.8,27.8C357.9,195.7,345.4,208.1,330.1,208.1z"
		/>
	<path class="st1" d="M176.7,381.3c26.2,0,47.5-21.3,47.5-47.5s-21.3-47.5-47.5-47.5s-47.5,21.3-47.5,47.5S150.5,381.3,176.7,381.3z
		 M176.7,305.9c15.3,0,27.8,12.5,27.8,27.8c0,15.3-12.5,27.8-27.8,27.8c-15.3,0-27.8-12.5-27.8-27.8
		C148.9,318.4,161.4,305.9,176.7,305.9z"/>
	<path class="st2" d="M296.5,367.3c1.9,1.9,4.5,2.9,7,2.9c2.5,0,5.1-1,7-2.9l19.7-19.7l19.7,19.7c1.9,1.9,4.5,2.9,7,2.9
		c2.5,0,5.1-1,7-2.9c3.9-3.9,3.9-10.1,0-14l-19.7-19.7l19.7-19.7c3.9-3.9,3.9-10.1,0-14c-3.9-3.9-10.1-3.9-14,0l-19.7,19.7
		l-19.7-19.7c-3.9-3.9-10.1-3.9-14,0c-3.9,3.9-3.9,10.1,0,14l19.7,19.7l-19.7,19.7C292.6,357.2,292.6,363.5,296.5,367.3z"/>
	<path class="st2" d="M143.1,160.7l19.7,19.7L143.1,200c-3.9,3.9-3.9,10.1,0,14c1.9,1.9,4.5,2.9,7,2.9c2.5,0,5.1-1,7-2.9l19.7-19.7
		l19.7,19.7c1.9,1.9,4.5,2.9,7,2.9c2.5,0,5.1-1,7-2.9c3.9-3.9,3.9-10.1,0-14l-19.7-19.7l19.7-19.7c3.9-3.9,3.9-10.1,0-14
		c-3.9-3.9-10.1-3.9-14,0l-19.7,19.7L157,146.7c-3.9-3.9-10.1-3.9-14,0C139.2,150.6,139.2,156.8,143.1,160.7z"/>
</g>
</svg>
