<svg id="Layer_1" data-name="Layer 1" xmlns="http://www.w3.org/2000/svg" viewBox="0 0 512 512"><defs><style>.cls-1{fill:#e4dbcb;}.cls-2{fill:#e83c49;}</style></defs><path class="cls-1" d="M430.31,0H81.69A81.76,81.76,0,0,0,0,81.69V430.31A81.76,81.76,0,0,0,81.69,512H430.31A81.76,81.76,0,0,0,512,430.31V81.69A81.76,81.76,0,0,0,430.31,0ZM240.53,481.06H81.69a50.81,50.81,0,0,1-50.75-50.75V271.47H240.53Zm0-240.53H30.94V81.69A50.81,50.81,0,0,1,81.69,30.94H240.53ZM481.06,430.31a50.81,50.81,0,0,1-50.75,50.75H271.47V271.47H481.06Zm0-189.78H271.47V30.94H430.31a50.81,50.81,0,0,1,50.75,50.75Z"/><path class="cls-2" d="M376.27,61.21a74.53,74.53,0,1,0,74.52,74.54v0A74.63,74.63,0,0,0,376.27,61.21Zm0,118.11a43.59,43.59,0,1,1,43.58-43.6h0A43.63,43.63,0,0,1,376.27,179.32Z"/><path class="cls-2" d="M135.73,450.79a74.53,74.53,0,1,0-74.52-74.54v0A74.63,74.63,0,0,0,135.73,450.79Zm0-118.11a43.59,43.59,0,1,1-43.58,43.6h0A43.63,43.63,0,0,1,135.73,332.68Z"/><path class="cls-1" d="M323.57,429a15.46,15.46,0,0,0,21.86,0h0l30.83-30.83L407.09,429A15.49,15.49,0,0,0,429,407.09l-30.83-30.82L429,345.44a15.47,15.47,0,0,0-21.88-21.87L376.3,354.39l-30.83-30.82a15.46,15.46,0,0,0-21.87,21.87l30.82,30.83L323.6,407.09a15.48,15.48,0,0,0-.05,21.89Z"/><path class="cls-1" d="M83,104.91l30.83,30.82L83,166.56a15.47,15.47,0,0,0,21.88,21.87l30.82-30.82,30.83,30.82a15.46,15.46,0,0,0,21.87-21.87l-30.82-30.83,30.82-30.82a15.47,15.47,0,1,0-21.49-22.26c-.12.11-.23.23-.35.35l-30.83,30.83L104.91,83A15.49,15.49,0,0,0,83,104.91Z"/></svg>